<svg xmlns="http://www.w3.org/2000/svg" width="48" height="48" viewBox="0 0 48 48"><g><g><g><g><path fill="#fff" d="M0 24C0 10.745 10.745 0 24 0s24 10.745 24 24-10.745 24-24 24S0 37.255 0 24z"/></g><g><g><path fill="#e01e5a" d="M16.54 27.395a2.711 2.711 0 0 1-2.705 2.705 2.711 2.711 0 0 1-2.705-2.705 2.711 2.711 0 0 1 2.705-2.705h2.705z"/></g><g><path fill="#e01e5a" d="M17.9 27.395a2.711 2.711 0 0 1 2.705-2.705 2.711 2.711 0 0 1 2.705 2.705v6.772a2.711 2.711 0 0 1-2.705 2.705 2.711 2.711 0 0 1-2.705-2.705z"/></g><g><path fill="#36c5f0" d="M20.605 16.54a2.711 2.711 0 0 1-2.705-2.705 2.711 2.711 0 0 1 2.705-2.705 2.711 2.711 0 0 1 2.705 2.705v2.705z"/></g><g><path fill="#36c5f0" d="M20.607 17.9a2.711 2.711 0 0 1 2.705 2.705 2.711 2.711 0 0 1-2.705 2.705h-6.772a2.711 2.711 0 0 1-2.705-2.705 2.711 2.711 0 0 1 2.705-2.705z"/></g><g><path fill="#2eb67d" d="M31.46 20.605a2.711 2.711 0 0 1 2.705-2.705 2.711 2.711 0 0 1 2.705 2.705 2.711 2.711 0 0 1-2.705 2.705H31.46z"/></g><g><path fill="#2eb67d" d="M30.1 20.607a2.711 2.711 0 0 1-2.705 2.705 2.711 2.711 0 0 1-2.705-2.705v-6.772a2.711 2.711 0 0 1 2.705-2.705 2.711 2.711 0 0 1 2.705 2.705z"/></g><g><path fill="#ecb22e" d="M27.395 31.46a2.711 2.711 0 0 1 2.705 2.705 2.711 2.711 0 0 1-2.705 2.705 2.711 2.711 0 0 1-2.705-2.705V31.46z"/></g><g><path fill="#ecb22e" d="M27.395 30.1a2.711 2.711 0 0 1-2.705-2.705 2.711 2.711 0 0 1 2.705-2.705h6.772a2.711 2.711 0 0 1 2.705 2.705 2.711 2.711 0 0 1-2.705 2.705z"/></g></g></g></g></g></svg>