<svg xmlns="http://www.w3.org/2000/svg" width="48" height="48" viewBox="0 0 48 48"><defs><linearGradient id="6et8a" x1="12.13" x2="35.98" y1="33.23" y2="33.23" gradientUnits="userSpaceOnUse"><stop offset="0" stop-opacity=".1"/><stop offset="1" stop-opacity=".2"/></linearGradient></defs><g><g><g><g><path fill="#fff" d="M0 24C0 10.745 10.745 0 24 0s24 10.745 24 24-10.745 24-24 24S0 37.255 0 24z"/></g><g><path fill="#e3e3e3" d="M34.467 33.234h-20.97A1.502 1.502 0 0 1 12 31.737v-15.15c0-.812.663-1.497 1.498-1.497h20.969c.813 0 1.497.663 1.497 1.498v15.149c0 .834-.663 1.497-1.497 1.497z"/></g><g opacity=".1"><path fill="#231f20" d="M14.995 33.23l8.966-7.21.064-.386-9.244-6.654-.021 13.93z"/></g><g><path fill="#d54b3d" d="M13.498 33.232A1.489 1.489 0 0 1 12 31.735v-15.17c0-.835.663-.985 1.498-.985.834 0 1.498.171 1.498.984v16.668z"/></g><g><path fill="#d72b27" d="M12 16.564c0-.813.663-.984 1.498-.984.834 0 1.498.15 1.498.984v16.668h-1.498A1.489 1.489 0 0 1 12 31.734zm2.782 0c0-.45-.214-.77-1.284-.77s-1.284.3-1.284.77v15.17c0 .707.578 1.284 1.284 1.284h1.284z"/></g><g><path fill="#d54b3d" d="M34.468 33.232H32.97v-16.71c0-.835.663-.942 1.498-.942.834 0 1.497.107 1.497.942v15.234c0 .813-.663 1.476-1.497 1.476z"/></g><g><path fill="#d72b27" d="M32.97 16.521c0-.834.663-.941 1.498-.941.834 0 1.497.107 1.497.942v15.234c0 .834-.663 1.498-1.497 1.498H32.97zm2.782 0c0-.535-.321-.727-1.284-.727-.963 0-1.284.171-1.284.728V33.04h1.284c.706 0 1.284-.578 1.284-1.284z"/></g><g><path fill="url(#6et8a)" d="M28.052 33.233L12.13 17.188l.837.34 11.084 7.981 11.918-8.739v14.987c0 .813-.663 1.476-1.498 1.476z"/></g><g><path fill="#d54b3d" d="M23.969 26.02l-11.32-8.217c-.662-.492-.855-1.434-.363-2.097a1.552 1.552 0 0 1 2.14-.321l9.564 6.954 9.629-7.04a1.488 1.488 0 0 1 2.097.343 1.488 1.488 0 0 1-.343 2.097z"/></g><g><path fill="#d72b27" d="M33.592 15.278c.257-.192.578-.278.878-.278.47 0 .92.214 1.22.642.47.685.32 1.605-.343 2.097L23.964 26.04l-11.319-8.238c-.663-.492-.856-1.434-.385-2.097.3-.406.77-.62 1.24-.62.322 0 .643.085.9.278l9.564 6.954zm1.926.47a1.307 1.307 0 0 0-1.048-.534c-.279 0-.535.086-.77.235l-9.608 7.04-.128.085-.129-.085-9.542-6.933a1.237 1.237 0 0 0-.77-.256c-.429 0-.835.213-1.07.534-.407.557-.257 1.37.32 1.798l11.19 8.13 11.277-8.216c.556-.428.685-1.22.278-1.797z"/></g></g></g></g></svg>